Coordinates
version=1
nRows=19
nColumns=24
inDegrees=yes

Units are S.I. units (second, meters, Newtons, ...)
Angles are in degrees.

endheader
time	pelvis_tilt	pelvis_list	pelvis_rotation	pelvis_tx	pelvis_ty	pelvis_tz	hip_flexion_r	hip_adduction_r	hip_rotation_r	knee_angle_r	ankle_angle_r	subtalar_angle_r	mtp_angle_r	hip_flexion_l	hip_adduction_l	hip_rotation_l	knee_angle_l	ankle_angle_l	subtalar_angle_l	mtp_angle_l	lumbar_extension	lumbar_bending	lumbar_rotation
      3.39500000	    -15.20688006	     -9.36476020	      7.58431726	      1.52063580	     -0.02524282	     -0.49263313	     31.68750880	      6.42871153	    -13.04060976	    -20.11938789	     -4.50055778	      4.05875168	     13.46567063	     18.71338358	    -16.81706361	     -7.31063492	    -60.25306793	    -27.85401849	     12.62428437	     23.86679896	     14.32809533	      8.88021758	     -7.90732684
      3.40000000	    -15.12558178	     -9.21488692	      7.37719302	      1.52690631	     -0.02396592	     -0.49185680	     30.99105179	      6.56792920	    -12.74179908	    -19.74617728	     -4.31431268	      4.15197257	     13.48573753	     19.36575267	    -16.61939290	     -7.22089176	    -60.94753679	    -27.17228532	     12.31547181	     24.12454399	     14.22942650	      8.78076274	     -7.57708754
      3.40500000	    -15.02285795	     -9.01333185	      7.09904952	      1.53316582	     -0.02264658	     -0.49097778	     30.25891249	      6.70717783	    -12.31301161	    -19.35857078	     -4.16960346	      4.12207683	     13.46075776	     19.93207264	    -16.39323920	     -7.23835644	    -61.54946153	    -26.50386358	     12.13373827	     24.33702031	     14.08967342	      8.65405917	     -7.09991967
      3.41000000	    -14.92911353	     -8.81655491	      6.84268754	      1.53939194	     -0.02136812	     -0.49013607	     29.53262354	      6.82793685	    -11.91225848	    -18.96064930	     -4.02069417	      4.10878867	     13.42653706	     20.50886498	    -16.15481171	     -7.21809620	    -62.07943992	    -25.84754952	     12.12803831	     24.66192121	     13.96665546	      8.51932388	     -6.68937455
      3.41500000	    -14.84794299	     -8.60367916	      6.57084655	      1.54564449	     -0.02011308	     -0.48929322	     28.80502115	      6.93256618	    -11.48880495	    -18.54296527	     -3.87539422	      4.08840954	     13.38480170	     21.06837958	    -15.89812897	     -7.22812913	    -62.52295145	    -25.21261976	     12.21208590	     25.04485713	     13.86557183	      8.36912640	     -6.28034991
      3.42000000	    -14.74434891	     -8.38525449	      6.27574929	      1.55176084	     -0.01886969	     -0.48839630	     28.06535585	      7.04554232	    -11.01643340	    -18.13129476	     -3.76633329	      3.98627164	     13.29933265	     21.59572389	    -15.64709720	     -7.26557095	    -62.90580624	    -24.59885077	     12.38192524	     25.49337015	     13.71399791	      8.22215329	     -5.82079818
      3.42500000	    -14.67192887	     -8.14296971	      5.98511087	      1.55797742	     -0.01766640	     -0.48753759	     27.33328012	      7.11615597	    -10.55012160	    -17.69153866	     -3.63297851	      3.92750900	     13.22983317	     22.12356460	    -15.35856640	     -7.31711696	    -63.19775198	    -23.98892817	     12.62231895	     25.95815691	     13.62478941	      8.04105659	     -5.40833188
      3.43000000	    -14.58678884	     -7.89802018	      5.66874375	      1.56410331	     -0.01648614	     -0.48662976	     26.59449272	      7.19325133	    -10.04753739	    -17.25294064	     -3.52950682	      3.81833111	     13.13498108	     22.62654713	    -15.08079721	     -7.40274293	    -63.43161230	    -23.38881950	     12.91581686	     26.45316956	     13.50540066	      7.86524957	     -4.95515049
      3.43500000	    -14.48030753	     -7.65730190	      5.33789330	      1.57011491	     -0.01532094	     -0.48570682	     25.83937690	      7.27756317	     -9.50656096	    -16.81089046	     -3.46017880	      3.65070551	     12.99330260	     23.10439905	    -14.81340941	     -7.50598530	    -63.61296267	    -22.79834022	     13.20631483	     26.96588190	     13.34588170	      7.70211706	     -4.46812875
      3.44000000	    -14.37501010	     -7.42000657	      4.99972775	      1.57624203	     -0.01418339	     -0.48476535	     25.05567560	      7.36444974	     -8.93741181	    -16.32722104	     -3.37499474	      3.47423807	     12.80519597	     23.55543051	    -14.56102783	     -7.64967755	    -63.71805907	    -22.21830703	     13.46895111	     27.45912836	     13.21660010	      7.53540157	     -4.02413578
      3.44500000	    -14.29971553	     -7.15959134	      4.66107429	      1.58225320	     -0.01313399	     -0.48384334	     24.32483304	      7.40041059	     -8.42276319	    -15.87634312	     -3.26671903	      3.37216507	     12.66920358	     24.04199771	    -14.27030729	     -7.78434574	    -63.78301501	    -21.62073753	     13.77228379	     27.88334766	     13.10448001	      7.34268734	     -3.55106191
      3.45000000	    -14.24313669	     -6.87746948	      4.32726180	      1.58822074	     -0.01211458	     -0.48294774	     23.61616422	      7.39358729	     -7.94047952	    -15.42359464	     -3.18737225	      3.29118805	     12.56278050	     24.53808576	    -13.94425391	     -7.92230353	    -63.78702717	    -21.00925239	     14.05668825	     28.23977298	     13.01366724	      7.12283756	     -3.09507254
      3.45500000	    -14.13780895	     -6.63878013	      3.95972600	      1.59422774	     -0.01112314	     -0.48197746	     22.83331651	      7.45504775	     -7.35463286	    -14.92585299	     -3.11551512	      3.11241903	     12.39677318	     24.96735934	    -13.70680810	     -8.12589791	    -63.75043735	    -20.39256847	     14.26042005	     28.52631666	     12.88098481	      6.95711982	     -2.62230303
      3.46000000	    -14.09036335	     -6.35666805	      3.61342710	      1.60015018	     -0.01021466	     -0.48106124	     22.13655529	      7.42868104	     -6.89251889	    -14.46829506	     -3.03011904	      3.05090677	     12.30061350	     25.45684703	    -13.39036141	     -8.29702232	    -63.65574679	    -19.76931992	     14.45736340	     28.74845322	     12.80321034	      6.73319627	     -2.15924007
      3.46500000	    -13.98575323	     -6.12025744	      3.23976367	      1.60609923	     -0.00932012	     -0.48008556	     21.35549431	      7.46966926	     -6.31956004	    -13.96180740	     -2.96999279	      2.87701582	     12.14093175	     25.87368136	    -13.16125172	     -8.52763603	    -63.52823340	    -19.12457478	     14.54879586	     28.84417220	     12.67446948	      6.56506346	     -1.69487773
      3.47000000	    -13.94117207	     -5.84080583	      2.88365750	      1.61196360	     -0.00852625	     -0.47915451	     20.66719105	      7.42785664	     -5.85790331	    -13.50218822	     -2.88127826	      2.81633135	     12.05421140	     26.35191218	    -12.85841109	     -8.73056984	    -63.34209572	    -18.49197285	     14.60544693	     28.91388449	     12.60315045	      6.34092398	     -1.22617749
      3.47500000	    -13.83281622	     -5.61718578	      2.51568941	      1.61785205	     -0.00773788	     -0.47818746	     19.88654177	      7.45670119	     -5.30285551	    -12.99089341	     -2.83048997	      2.63091509	     11.89163331	     26.75641251	    -12.64534639	     -8.97134357	    -63.13047803	    -17.82166648	     14.56154937	     28.81649011	     12.47385154	      6.17825412	     -0.78004378
      3.48000000	    -13.79163894	     -5.34273049	      2.15342551	      1.62365907	     -0.00706025	     -0.47725353	     19.21045315	      7.40055930	     -4.84159863	    -12.53462474	     -2.73907543	      2.56546327	     11.80982934	     27.22210156	    -12.35734629	     -9.20456459	    -62.85270769	    -17.19334969	     14.43107339	     28.73522900	     12.40900747	      5.95581356	     -0.31041245
      3.48500000	    -13.68292229	     -5.13321251	      1.79169951	      1.62947375	     -0.00638805	     -0.47630704	     18.44006027	      7.41703269	     -4.30011016	    -12.02868376	     -2.69101798	      2.38301522	     11.65846816	     27.61706073	    -12.15902805	     -9.44518018	    -62.55620598	    -16.52213444	     14.25109548	     28.48577249	     12.27907669	      5.80182787	      0.13570232
